<svg width="16" height="16" viewBox="0 0 16 16" fill="none" xmlns="http://www.w3.org/2000/svg">
<g id="icon/16px/icon_&#229;&#143;&#150;&#230;&#182;&#136;">
<g id="&#231;&#188;&#150;&#231;&#187;&#132; 5">
<circle id="Ellipse 2" cx="8" cy="8" r="7" fill="#CED4D9"/>
<g id="Group 1916">
<path id="Union" fill-rule="evenodd" clip-rule="evenodd" d="M10.6033 5.04733C10.4081 4.85206 10.0915 4.85206 9.89623 5.04733L7.95093 6.99263L6.00593 5.04763C5.81067 4.85237 5.49409 4.85237 5.29883 5.04763L4.94527 5.40118C4.75001 5.59644 4.75001 5.91303 4.94527 6.10829L6.89027 8.05329L4.94648 9.99707C4.75122 10.1923 4.75122 10.5089 4.94648 10.7042L5.30004 11.0577C5.4953 11.253 5.81188 11.253 6.00714 11.0577L7.95093 9.11395L9.89502 11.058C10.0903 11.2533 10.4069 11.2533 10.6021 11.058L10.9557 10.7045C11.1509 10.5092 11.1509 10.1926 10.9557 9.99738L9.01159 8.05329L10.9569 6.10799C11.1522 5.91272 11.1522 5.59614 10.9569 5.40088L10.6033 5.04733Z" fill="white"/>
</g>
</g>
</g>
</svg>
