<svg width="30" height="30" viewBox="0 0 30 30" fill="none" xmlns="http://www.w3.org/2000/svg">
<g id="tips/close-circle">
<path id="Vector" fill-rule="evenodd" clip-rule="evenodd" d="M15 5C9.47715 5 5 9.47715 5 15C5 20.5228 9.47715 25 15 25C20.5228 25 25 20.5228 25 15C25 9.47715 20.5228 5 15 5ZM2.5 15C2.5 8.09644 8.09644 2.5 15 2.5C21.9036 2.5 27.5 8.09644 27.5 15C27.5 21.9036 21.9036 27.5 15 27.5C8.09644 27.5 2.5 21.9036 2.5 15ZM13.2365 15.0043L10.1429 11.9107L11.9107 10.1429L15.0043 13.2365L18.0979 10.1429L19.8656 11.9107L16.772 15.0043L19.8656 18.0979L18.0979 19.8657L15.0043 16.7721L11.9107 19.8657L10.1429 18.0979L13.2365 15.0043Z" fill="#4E5969"/>
</g>
</svg>
