<svg width="32" height="32" viewBox="0 0 32 32" fill="none" xmlns="http://www.w3.org/2000/svg">
<g id="icon_&#230;&#142;&#167;&#229;&#136;&#182;&#229;&#143;&#176;">
<path id="Union" fill-rule="evenodd" clip-rule="evenodd" d="M1.72912 2H29.2781C30.1051 2.05267 30.8925 2.6929 31 3.51827V19.886C31 21.1848 29.8361 22.2485 28.4174 22.2485H18.0866V26.9747H19.3777C19.3777 26.9747 20.6693 26.975 20.6693 29H10.3384C10.3384 29 9.96165 27.0273 11.6296 26.9747H12.9211V22.2485H2.59003C1.16865 22.2485 0.00729306 21.1848 0.00729306 19.886V3.51823C-0.100325 2.64023 1.00733 2 1.72912 2ZM1.72912 20.5625H29.2781H29.2781V3.68751H1.72912V20.5625ZM27 19V6H4V19H27H27Z" fill="white"/>
</g>
</svg>
