<svg width="24" height="24" viewBox="0 0 24 24" fill="none" xmlns="http://www.w3.org/2000/svg">
<g id="edit/edit">
<path id="Vector" fill-rule="evenodd" clip-rule="evenodd" d="M13.8994 2.44495C14.4852 1.85917 15.4349 1.85917 16.0207 2.44495L18.8135 5.2378C19.3993 5.82359 19.3993 6.77333 18.8135 7.35912L8.5886 17.5841C8.3499 17.8228 8.03766 17.974 7.70237 18.0132L4.67889 18.3672C3.74196 18.4769 2.93755 17.7048 3.00875 16.7642L3.24756 13.6092C3.27463 13.2515 3.42898 12.9153 3.68262 12.6617L13.8994 2.44495ZM13.1538 6.01897L15.2395 8.10471L17.0458 6.29846L14.96 4.21272L13.1538 6.01897ZM13.8253 9.51892L11.7396 7.43318L5.22787 13.9449L5.04883 16.3102L7.29724 16.047L13.8253 9.51892ZM21 21.9998L3 21.9998V19.9998L21 19.9998V21.9998Z" fill="#4E5969"/>
</g>
</svg>
