<svg width="28" height="28" viewBox="0 0 28 28" fill="none" xmlns="http://www.w3.org/2000/svg">
<g id="icon_&#231;&#190;&#164;&#231;&#187;&#132;">
<path id="Vector" d="M15.7353 13.8773C17.3547 13.2353 18.5048 11.6566 18.5048 9.81152C18.5048 7.39899 16.5419 5.43652 14.1294 5.43652C11.7169 5.43652 9.75438 7.39899 9.75438 9.81152C9.75438 11.6566 10.904 13.2353 12.5235 13.8773C8.92262 14.6218 6.20703 17.8175 6.20703 21.6358C6.20703 22.5643 6.85844 22.8719 7.3818 23.1189L7.41186 23.1313C9.52215 23.8762 12.5741 24.0746 14.045 24.0746C15.6488 24.0746 18.7885 23.8144 20.8737 23.0942C21.6552 22.7945 22.0517 22.3036 22.0517 21.6358C22.0517 17.8171 19.3361 14.6213 15.7353 13.8773Z" fill="#2C2C2C"/>
<path id="Vector_2" d="M10.4662 13.5088C9.42974 12.5424 8.77792 11.1691 8.77792 9.64027C8.77792 7.76797 9.75256 6.12627 11.2193 5.18497V5.18456C11.2102 5.1718 11.197 5.16439 11.1867 5.15368C11.176 5.14215 11.1694 5.12774 11.1567 5.11744C10.3801 4.49384 9.41438 4.15329 8.41845 4.15186C6.00592 4.15186 4.04304 6.11433 4.04304 8.52685C4.04304 10.372 5.19309 11.9507 6.81256 12.5926C3.21127 13.3371 0.496094 16.5328 0.496094 20.3511C0.496094 21.0194 0.892623 21.5098 1.68445 21.8137C2.85715 22.2189 4.31233 22.4523 5.35204 22.5791C5.30883 22.2278 5.28683 21.8741 5.28615 21.5201C5.28615 17.9534 7.41292 14.8853 10.4662 13.5088ZM21.5138 12.593C23.1333 11.9511 24.2833 10.3724 24.2833 8.52727C24.2833 6.11474 22.3204 4.15227 19.9079 4.15227C18.8979 4.15227 17.9117 4.50515 17.1322 5.14544L17.0161 5.24056C17.7395 5.72401 18.3325 6.37848 18.7424 7.14595C19.1523 7.91343 19.3665 8.77018 19.366 9.64027C19.366 11.1691 18.7142 12.5424 17.6778 13.5088C20.731 14.8853 22.8578 17.9534 22.8578 21.5201C22.8578 21.8866 22.8327 22.2469 22.7894 22.6014L22.8113 22.5989C23.8814 22.4746 25.4149 22.2378 26.6526 21.81C27.4342 21.5102 27.8307 21.0194 27.8307 20.3515C27.8307 16.5328 25.1151 13.3371 21.5138 12.593Z" fill="#2C2C2C"/>
</g>
</svg>
