<svg width="32" height="32" viewBox="0 0 32 32" fill="none" xmlns="http://www.w3.org/2000/svg">
<g id="icon_&#231;&#190;&#164;&#229;&#143;&#145;" clip-path="url(#clip0_32_10733)">
<path id="Union" fill-rule="evenodd" clip-rule="evenodd" d="M15.8939 25.4169C16.5966 25.4169 17.1249 25.269 17.6479 24.9784L30.793 16.1922V30.5365C30.793 31.2656 29.9159 32 29.0389 32H2.75941C1.88237 32 1.00533 31.2709 1.00533 30.5365V16.1922L14.1398 24.9784C14.6681 25.269 15.1912 25.4169 15.8939 25.4169ZM6.46834 6.93042H4.85691L7.34009 9.2868C7.71521 9.65664 7.71521 10.4016 7.34009 10.7767C6.84874 11.1518 6.2253 11.1518 5.72866 10.7767L3.24548 8.42033V10.0318C3.24548 10.6552 2.74884 11.1518 2.12541 11.1518C1.50197 11.1518 1.00533 10.6552 1.00533 10.0318V5.68883C1.00533 5.06539 1.50197 4.56876 2.12541 4.56876H6.46834C7.09177 4.56876 7.58841 5.18691 7.58841 5.81035C7.58841 6.43379 7.09177 6.93042 6.46834 6.93042ZM25.33 4.56876H29.6729C30.291 4.56876 30.7877 5.06539 30.793 5.68883V10.0318C30.793 10.6552 30.2963 11.1518 29.6729 11.1518C29.0494 11.1518 28.5528 10.6552 28.5528 10.0318V8.42033L26.0696 10.7767C25.5783 11.1518 24.9548 11.1518 24.4582 10.7767C24.0831 10.4069 24.0831 9.66192 24.4582 9.2868L26.9414 6.93042L25.33 6.8089C24.7065 6.8089 24.2099 6.31227 24.2099 5.68883C24.2099 5.06539 24.7065 4.56876 25.33 4.56876ZM16.7656 0.35263L21.3569 4.81707C21.8535 5.19219 21.8535 5.93715 21.3674 6.30698C20.9976 6.80362 20.2526 6.80362 19.756 6.30698L17.0245 3.70228V10.0318C17.0245 10.6552 16.5279 11.1518 15.9044 11.1518C15.281 11.1518 14.7844 10.6552 14.7844 10.0318V3.70228L12.0529 6.30698C11.683 6.80362 10.9381 6.80362 10.5629 6.30698C10.0663 5.93715 10.0663 5.19219 10.5629 4.81707L15.1489 0.35263C15.6455 -0.0224895 16.1422 -0.14929 16.6388 0.225829L16.7656 0.35263ZM15.1964 23.8055L1.53362 14.7287C1.35927 14.5808 1.18492 14.5808 1 14.586V14.4381C1 13.709 1.87704 12.9746 2.75408 12.9746H29.0336C29.9106 12.9746 30.7876 13.5558 30.7876 14.2902L16.5965 23.8055C16.2478 24.0961 15.5451 24.0961 15.1964 23.8055Z" fill="white"/>
</g>
<defs>
<clipPath id="clip0_32_10733">
<rect width="32" height="32" fill="white"/>
</clipPath>
</defs>
</svg>
