<svg width="32" height="32" viewBox="0 0 32 32" fill="none" xmlns="http://www.w3.org/2000/svg">
<g id="edit/link">
<path id="Vector" fill-rule="evenodd" clip-rule="evenodd" d="M7.04357 21.1854C6.00217 22.2268 6.00217 23.9153 7.04357 24.9567C8.08497 25.9981 9.77341 25.9981 10.8148 24.9567L16.4717 19.2998C17.5131 18.2584 17.5131 16.57 16.4717 15.5286L18.3573 13.643C20.4401 15.7258 20.4401 19.1026 18.3573 21.1854L12.7004 26.8423C10.6176 28.9251 7.24075 28.9251 5.15795 26.8423C3.07516 24.7595 3.07516 21.3826 5.15795 19.2998L8.45779 16L10.3434 17.8856L7.04357 21.1854ZM13.6432 18.357C11.5604 16.2742 11.5604 12.8973 13.6432 10.8145L19.3001 5.15767C21.3829 3.07488 24.7598 3.07488 26.8426 5.15768C28.9254 7.24047 28.9254 10.6174 26.8426 12.7001L23.5427 16L21.6571 14.1144L24.9569 10.8145C25.9983 9.77313 25.9983 8.08469 24.9569 7.04329C23.9155 6.0019 22.2271 6.0019 21.1857 7.04329L15.5289 12.7001C14.4875 13.7415 14.4875 15.43 15.5289 16.4714L13.6432 18.357Z" fill="#4E5969"/>
</g>
</svg>
