<svg width="32" height="32" viewBox="0 0 32 32" fill="none" xmlns="http://www.w3.org/2000/svg">
<g id="edit/link">
<path id="Vector" d="M21.1204 14.2888C20.782 14.2888 20.4511 14.1884 20.1697 14.0004C19.8883 13.8124 19.669 13.5451 19.5394 13.2324C19.4099 12.9197 19.376 12.5757 19.4421 12.2437C19.5081 11.9118 19.6711 11.6069 19.9104 11.3675C20.1497 11.1282 20.4546 10.9652 20.7866 10.8992C21.1185 10.8332 21.4626 10.8671 21.7753 10.9966C22.0879 11.1261 22.3552 11.3454 22.5432 11.6268C22.7313 11.9083 22.8316 12.2391 22.8316 12.5776C22.8316 12.8023 22.7874 13.0248 22.7014 13.2324C22.6154 13.44 22.4893 13.6287 22.3304 13.7876C22.1715 13.9465 21.9829 14.0725 21.7753 14.1585C21.5676 14.2445 21.3451 14.2888 21.1204 14.2888ZM10.8928 14.2888C10.5533 14.2914 10.2206 14.1929 9.93719 14.0059C9.65376 13.8189 9.43238 13.5518 9.30122 13.2385C9.17006 12.9253 9.13506 12.5802 9.20067 12.247C9.26628 11.9138 9.42953 11.6077 9.66965 11.3676C9.90976 11.1275 10.2159 10.9642 10.5491 10.8986C10.8822 10.833 11.2274 10.868 11.5406 10.9992C11.8538 11.1303 12.121 11.3517 12.308 11.6352C12.495 11.9186 12.5935 12.2513 12.5908 12.5908C12.5873 13.0424 12.4055 13.4742 12.085 13.7923C11.7644 14.1103 11.3312 14.2888 10.8796 14.2888H10.8928ZM10.0969 21.85C9.91046 21.6389 9.81549 21.3624 9.8329 21.0813C9.85032 20.8002 9.97869 20.5375 10.1898 20.351C10.4009 20.1646 10.6774 20.0696 10.9585 20.087C11.2396 20.1044 11.5023 20.2328 11.6888 20.4439C12.229 21.0565 12.8935 21.5471 13.6379 21.8832C14.3824 22.2192 15.1898 22.393 16.0066 22.393C16.8234 22.393 17.6309 22.2192 18.3753 21.8832C19.1198 21.5471 19.7842 21.0565 20.3245 20.4439C20.4168 20.3394 20.5288 20.254 20.6541 20.1928C20.7794 20.1316 20.9156 20.0956 21.0547 20.087C21.1939 20.0784 21.3335 20.0973 21.4654 20.1426C21.5973 20.1879 21.719 20.2587 21.8235 20.351C21.928 20.4433 22.0133 20.5554 22.0745 20.6807C22.1358 20.806 22.1717 20.9421 22.1803 21.0813C22.189 21.2205 22.1701 21.36 22.1248 21.4919C22.0795 21.6238 22.0087 21.7455 21.9163 21.85C21.1769 22.6884 20.2675 23.36 19.2486 23.8199C18.2297 24.2799 17.1245 24.5177 16.0066 24.5177C14.8887 24.5177 13.7836 24.2799 12.7647 23.8199C11.7457 23.36 10.8364 22.6884 10.0969 21.85ZM16 26.8776C18.1514 26.8776 20.2544 26.2396 22.0433 25.0444C23.8321 23.8491 25.2263 22.1503 26.0496 20.1627C26.8729 18.1751 27.0883 15.9879 26.6686 13.8779C26.2488 11.7679 25.2129 9.82966 23.6916 8.3084C22.1703 6.78715 20.2322 5.75116 18.1221 5.33144C16.0121 4.91173 13.825 5.12714 11.8373 5.95044C9.84972 6.77374 8.15088 8.16794 6.95564 9.95675C5.76039 11.7456 5.12244 13.8486 5.12244 16C5.12244 18.8849 6.26846 21.6517 8.3084 23.6916C10.3483 25.7315 13.1151 26.8776 16 26.8776ZM16 29C13.4288 29 10.9154 28.2376 8.77759 26.8091C6.63975 25.3806 4.97351 23.3503 3.98957 20.9749C3.00563 18.5994 2.74819 15.9856 3.2498 13.4638C3.7514 10.9421 4.98953 8.6257 6.80762 6.80762C8.6257 4.98953 10.9421 3.7514 13.4638 3.2498C15.9856 2.74819 18.5994 3.00563 20.9749 3.98957C23.3503 4.97351 25.3806 6.63975 26.8091 8.77759C28.2376 10.9154 29 13.4288 29 16C29 19.4478 27.6304 22.7544 25.1924 25.1924C22.7544 27.6304 19.4478 29 16 29Z" fill="#4E5969"/>
</g>
</svg>
