<svg width="32" height="32" viewBox="0 0 32 32" fill="none" xmlns="http://www.w3.org/2000/svg">
<g id="icon_&#232;&#180;&#166;&#229;&#143;&#183;" opacity="0.8">
<path id="Vector" d="M16.747 16.9598C21.3977 16.9598 25.1737 13.1732 25.163 8.52247C25.163 3.87181 21.3764 0.0958116 16.7257 0.106468C12.075 0.106468 8.29904 3.89315 8.30973 8.54381C8.32038 13.1945 12.0964 16.9598 16.747 16.9598ZM26.8057 20.7358C25.0244 18.9545 22.603 18.0265 20.0857 18.0265H13.387C8.16038 18.0265 3.91504 22.2398 3.91504 27.4772C3.91504 29.9305 5.90973 31.8932 8.37373 31.8932H25.099C26.283 31.9998 27.4244 31.4132 28.267 30.5705C29.1097 29.7385 29.5897 28.6078 29.5897 27.4238C29.5897 24.9065 28.587 22.5065 26.8057 20.7358Z" fill="white"/>
</g>
</svg>
