<svg width="20" height="20" viewBox="0 0 20 20" fill="none" xmlns="http://www.w3.org/2000/svg">
<g id="general/unlock">
<path id="Vector" fill-rule="evenodd" clip-rule="evenodd" d="M5.41634 6.24999C5.41634 3.71868 7.46837 1.66666 9.99967 1.66666C12.531 1.66666 14.583 3.71868 14.583 6.24999H12.9163C12.9163 4.63916 11.6105 3.33332 9.99967 3.33332C8.38884 3.33332 7.08301 4.63916 7.08301 6.24999V7.91666H16.6663C17.3567 7.91666 17.9163 8.4763 17.9163 9.16666V16.6667C17.9163 17.357 17.3567 17.9167 16.6663 17.9167H3.33301C2.64265 17.9167 2.08301 17.357 2.08301 16.6667V9.16666C2.08301 8.4763 2.64265 7.91666 3.33301 7.91666H5.41634V6.24999ZM3.74967 9.58332V16.25H16.2497V9.58332H3.74967ZM10.833 15V10.8333H9.16634V15H10.833Z" fill="#165DFF"/>
</g>
</svg>
