<svg width="18" height="18" viewBox="0 0 18 18" fill="none" xmlns="http://www.w3.org/2000/svg">
<g id="icon-wrapper" clip-path="url(#clip0_20_1421)">
<g id="icon_&#232;&#180;&#166;&#229;&#143;&#183;1">
<path id="Vector" fill-rule="evenodd" clip-rule="evenodd" d="M6.78947 5.68421C6.78947 4.46337 7.77916 3.47368 9 3.47368C10.2208 3.47368 11.2105 4.46337 11.2105 5.68421C11.2105 6.90505 10.2208 7.89474 9 7.89474C7.77916 7.89474 6.78947 6.90505 6.78947 5.68421ZM9 2C6.96527 2 5.31579 3.64948 5.31579 5.68421C5.31579 7.71894 6.96527 9.36842 9 9.36842C11.0347 9.36842 12.6842 7.71894 12.6842 5.68421C12.6842 3.64948 11.0347 2 9 2ZM6.05263 10.1053C4.99216 10.1053 3.98594 10.4284 3.23194 11.0667C2.46626 11.7148 2 12.6575 2 13.7895V14.8947C2 15.5052 2.49484 16 3.10526 16H14.8947C15.5052 16 16 15.5052 16 14.8947V13.7895C16 12.6575 15.5337 11.7148 14.7681 11.0667C14.0141 10.4284 13.0078 10.1053 11.9474 10.1053H6.05263ZM3.47368 13.7895C3.47368 13.0902 3.74969 12.5592 4.18409 12.1915C4.63017 11.8139 5.28185 11.5789 6.05263 11.5789H11.9474C12.7182 11.5789 13.3698 11.8139 13.8159 12.1915C14.2503 12.5592 14.5263 13.0902 14.5263 13.7895V14.5263H3.47368V13.7895Z" fill="#2C2C2C"/>
</g>
</g>
<defs>
<clipPath id="clip0_20_1421">
<rect width="18" height="18" fill="white"/>
</clipPath>
</defs>
</svg>
