<svg width="20" height="20" viewBox="0 0 20 20" fill="none" xmlns="http://www.w3.org/2000/svg">
<g id="general/user">
<path id="Vector" fill-rule="evenodd" clip-rule="evenodd" d="M7.49967 6.25001C7.49967 4.8693 8.61896 3.75001 9.99967 3.75001C11.3804 3.75001 12.4997 4.8693 12.4997 6.25001C12.4997 7.63072 11.3804 8.75001 9.99967 8.75001C8.61896 8.75001 7.49967 7.63072 7.49967 6.25001ZM9.99967 2.08334C7.69849 2.08334 5.83301 3.94882 5.83301 6.25001C5.83301 8.5512 7.69849 10.4167 9.99967 10.4167C12.3009 10.4167 14.1663 8.5512 14.1663 6.25001C14.1663 3.94882 12.3009 2.08334 9.99967 2.08334ZM6.66634 11.25C5.46699 11.25 4.32901 11.6155 3.47628 12.3373C2.61033 13.0703 2.08301 14.1365 2.08301 15.4167V16.6667C2.08301 17.357 2.64265 17.9167 3.33301 17.9167H16.6663C17.3567 17.9167 17.9163 17.357 17.9163 16.6667V15.4167C17.9163 14.1365 17.389 13.0703 16.5231 12.3373C15.6703 11.6155 14.5324 11.25 13.333 11.25H6.66634ZM3.74967 15.4167C3.74967 14.6258 4.06182 14.0253 4.5531 13.6094C5.05761 13.1823 5.79462 12.9167 6.66634 12.9167H13.333C14.2047 12.9167 14.9417 13.1823 15.4462 13.6094C15.9375 14.0253 16.2497 14.6258 16.2497 15.4167V16.25H3.74967V15.4167Z" fill="#165DFF"/>
</g>
</svg>
