<svg width="20" height="20" viewBox="0 0 20 20" fill="none" xmlns="http://www.w3.org/2000/svg">
<g id="general/unlock">
<path id="Vector" d="M12.9985 8.82807H7.00022C6.84113 8.82807 6.68856 8.76487 6.57608 8.65239C6.46359 8.5399 6.40039 8.38733 6.40039 8.22824C6.40039 8.06916 6.46359 7.91659 6.57608 7.8041C6.68856 7.69161 6.84113 7.62842 7.00022 7.62842H12.9985C13.1576 7.62842 13.3101 7.69161 13.4226 7.8041C13.5351 7.91659 13.5983 8.06916 13.5983 8.22824C13.5983 8.38733 13.5351 8.5399 13.4226 8.65239C13.3101 8.76487 13.1576 8.82807 12.9985 8.82807Z" fill="#165DFF" stroke="#165DFF" stroke-width="0.3"/>
<path id="Vector_2" d="M10.0002 14.5864C9.84113 14.5864 9.68856 14.5232 9.57608 14.4107C9.46359 14.2982 9.40039 14.1457 9.40039 13.9866V8.22824C9.40039 8.06916 9.46359 7.91659 9.57608 7.8041C9.68856 7.69161 9.84113 7.62842 10.0002 7.62842C10.1593 7.62842 10.3119 7.69161 10.4244 7.8041C10.5368 7.91659 10.6 8.06916 10.6 8.22824V13.9966C10.5974 14.1539 10.5331 14.3039 10.4209 14.4143C10.3087 14.5246 10.1576 14.5864 10.0002 14.5864Z" fill="#165DFF" stroke="#165DFF" stroke-width="0.3"/>
<path id="Vector_3" d="M10.0001 3.26964C11.8331 4.71475 13.9425 5.76943 16.1983 6.36874V9.77776C16.1988 10.7875 15.9478 11.7816 15.4678 12.67C14.9878 13.5584 14.294 14.3132 13.4491 14.8663L10.9998 16.5058C10.7147 16.6929 10.3811 16.7925 10.0401 16.7925C9.6991 16.7925 9.36552 16.6929 9.0804 16.5058L6.57112 14.8663C5.72626 14.3132 5.03249 13.5584 4.5525 12.67C4.07251 11.7816 3.82142 10.7875 3.82192 9.77776V6.36874C6.07076 5.7669 8.17308 4.71234 10.0001 3.26964ZM10.0001 2.00001C9.7712 1.99905 9.54888 2.07668 9.37031 2.21995C7.60644 3.63408 5.56168 4.65645 3.37205 5.21908C3.14469 5.26785 2.94144 5.39436 2.79729 5.57683C2.65314 5.7593 2.57711 5.98631 2.58228 6.21879V9.77776C2.58228 10.9872 2.88284 12.1776 3.45696 13.2421C4.03107 14.3066 4.86072 15.2116 5.87133 15.876L8.40059 17.5155C8.8816 17.8316 9.44457 18 10.0201 18C10.5957 18 11.1587 17.8316 11.6397 17.5155L14.1289 15.876C15.1395 15.2116 15.9692 14.3066 16.5433 13.2421C17.1174 12.1776 17.418 10.9872 17.418 9.77776V6.23878C17.4232 6.0063 17.3471 5.77929 17.203 5.59682C17.0588 5.41436 16.8556 5.28785 16.6282 5.23907C14.4386 4.67645 12.3938 3.65407 10.6299 2.23994C10.4541 2.08947 10.2315 2.00467 10.0001 2.00001Z" fill="#165DFF" stroke="#165DFF" stroke-width="0.3"/>
</g>
</svg>
